<svg width="100" height="67" viewBox="0 0 100 67" fill="none" xmlns="http://www.w3.org/2000/svg">
<path fill-rule="evenodd" clip-rule="evenodd" d="M30.6991 0C38.2926 0 44.5024 5.98768 44.958 13.5462C47.6292 13.8545 50.1516 14.5685 52.4767 15.6225C57.3835 9.13506 65.2034 4.86322 74.0122 4.86322C88.8684 4.86322 100 17.014 100 31.4516C100 45.8891 87.9566 57.7508 73.1003 57.7508C69.3198 57.7508 65.7806 56.9827 62.6045 55.5995C57.7367 62.1405 49.8887 66.4134 41.0361 66.4134C27.9478 66.4134 17.7672 57.0735 15.6175 44.8724C15.436 45.1246 15.1399 45.2888 14.8055 45.2888H1C0.447715 45.2888 0 44.841 0 44.2888V41.7295C0 41.1772 0.447715 40.7295 1 40.7295H6.07903V14.8936H1C0.447715 14.8936 0 14.4459 0 13.8936V11.3344C0 10.7821 0.447715 10.3344 1 10.3344H10.3343V40.7295H14.8055C14.9487 40.7295 15.085 40.7596 15.2082 40.8139C15.2011 40.5563 15.1976 40.2979 15.1976 40.0386C15.1976 34.2472 17.1133 28.8227 20.3575 24.3981C17.9137 21.8074 16.4134 18.2996 16.4134 14.4377C16.4134 6.46397 22.8093 0 30.6991 0ZM30.6991 28.8754C37.4034 28.8754 43.029 24.208 44.5682 17.913C46.5245 18.1373 48.3865 18.6176 50.1272 19.3182C48.201 22.9772 47.1125 27.1111 47.1125 31.4516C47.1125 40.7979 51.7774 49.0647 59.098 53.7328C54.9636 58.947 48.5096 62.3217 41.2575 62.3217C28.7786 62.3217 19.4284 52.3293 19.4284 40.1669C19.4284 35.3167 21.0372 30.7729 23.763 27.0624C25.8169 28.2174 28.1819 28.8754 30.6991 28.8754ZM30.6991 24.6201C35.1001 24.6201 38.8391 21.7856 40.1902 17.8427C34.9973 18.2641 30.2997 20.4579 26.6918 23.7876C27.9191 24.323 29.2744 24.6201 30.6991 24.6201ZM23.1329 21.1749C27.6813 16.659 33.8361 13.7322 40.6602 13.4046C40.0739 8.42348 35.8378 4.55927 30.6991 4.55927C25.1594 4.55927 20.6687 9.05003 20.6687 14.5897C20.6687 17.1098 21.5981 19.4129 23.1329 21.1749ZM56.2971 17.7758C60.4604 12.6121 66.885 9.24534 74.0934 9.24534C86.6444 9.24534 96.0486 19.452 96.0486 31.5795C96.0486 43.7071 85.874 53.6709 73.323 53.6709C70.2826 53.6709 67.4268 53.0862 64.8447 52.0276C66.7218 48.4232 67.7812 44.3452 67.7812 40.0386C67.7812 30.8524 63.3262 22.5894 56.2971 17.7758ZM61.3794 50.223C55.2605 46.289 51.3678 39.3821 51.3678 31.5795C51.3678 27.9102 52.2992 24.4168 53.946 21.3287C60.0024 25.3511 63.8525 32.3624 63.8525 40.1669C63.8525 43.7786 62.9605 47.1989 61.3794 50.223Z" fill="#E8E8ED"/>
</svg>
